<?xml version="1.0" encoding="utf-8"?>
<!-- Generator: Adobe Illustrator 16.0.0, SVG Export Plug-In . SVG Version: 6.00 Build 0)  -->
<!DOCTYPE svg PUBLIC "-//W3C//DTD SVG 1.1//EN" "http://www.w3.org/Graphics/SVG/1.1/DTD/svg11.dtd">
<svg version="1.1" id="Layer_1" xmlns="http://www.w3.org/2000/svg" xmlns:xlink="http://www.w3.org/1999/xlink" x="0px" y="0px"
	 width="1400px" height="980px" viewBox="0 0 1400 980" enable-background="new 0 0 1400 980" xml:space="preserve">
<rect fill="#FFFFFF" width="1400" height="980"/>
<g>
	<g>
		<path fill="#EEF3FC" d="M1119.479,857.891c0,6.627-5.373,12-12,12h-146c-6.627,0-12-5.373-12-12v-281c0-6.627,5.373-12,12-12h146
			c6.627,0,12,5.373,12,12V857.891z"/>
		<path fill="#EEF3FC" d="M1107.479,564.891h-146c-6.627,0-12,5.373-12,12v236h170v-236
			C1119.479,570.264,1114.106,564.891,1107.479,564.891z"/>
		<path fill="#EEF3FC" d="M949.479,842.225v15.666c0,6.627,5.373,12,12,12h146c6.627,0,12-5.373,12-12v-15.666H949.479z"/>
		<ellipse fill="#EEF3FC" cx="1034.479" cy="842.225" rx="16" ry="16.667"/>
		<rect x="963.47" y="781.558" fill="#EEF3FC" width="140.5" height="16.5"/>
		<path fill="#EEF3FC" d="M1107.479,564.891h-146c-6.627,0-12,5.373-12,12v23h170v-23
			C1119.479,570.264,1114.106,564.891,1107.479,564.891z"/>
		<circle fill="#EEF3FC" cx="974.22" cy="585.141" r="5.75"/>
		<path fill="#EEF3FC" d="M1097.97,754.891c0,6.627-5.373,12-12,12h-105.5c-6.627,0-12-5.373-12-12v-122c0-6.627,5.373-12,12-12
			h105.5c6.627,0,12,5.373,12,12V754.891z"/>
		<path fill="#EEF3FC" d="M1062.032,635.331c-25.938-17.208-56.25,0-56.25,0l23.825,30.431L1062.032,635.331z"/>
		<polygon fill="#EEF3FC" points="1000.323,672.224 1000.323,739.558 1069.656,739.558 1069.656,672.224 1088.657,692.85 
			1108.323,673.184 1063.24,626.475 1033.907,655.808 1005.782,627.683 959.115,674.35 978.323,693.558 		"/>
		<path fill="#EEF3FC" d="M1058.099,667.262c0,0.828-0.672,1.5-1.5,1.5h-12.5c-0.828,0-1.5-0.672-1.5-1.5l0,0
			c0-0.828,0.672-1.5,1.5-1.5h12.5C1057.427,665.762,1058.099,666.434,1058.099,667.262L1058.099,667.262z"/>
	</g>
	<g>
		<path fill="#EEF3FC" d="M942.228,770.642c0,6.627-5.373,12-12,12H300.229c-6.627,0-12-5.373-12-12v-376c0-6.627,5.373-12,12-12
			h629.999c6.627,0,12,5.373,12,12V770.642z"/>
		<g>
			<path fill="#EEF3FC" d="M965.228,816.642c0,6.627-5.373,12-12,12H277.229c-6.627,0-12-5.373-12-12v-34c0-6.627,5.373-12,12-12
				h675.999c6.627,0,12,5.373,12,12V816.642z"/>
		</g>
		<path fill="#EEF3FC" d="M953.228,770.642H277.229c-6.627,0-12,5.373-12,12v5c0,6.627,5.373,12,12,12h675.999
			c6.627,0,12-5.373,12-12v-5C965.228,776.015,959.854,770.642,953.228,770.642z"/>
		<path fill="#EEF3FC" d="M912.505,738.865c0,5.721-4.639,10.358-10.359,10.358H328.312c-5.721,0-10.359-4.638-10.359-10.358
			V414.291c0-5.721,4.638-10.358,10.359-10.358h573.834c5.721,0,10.359,4.638,10.359,10.358V738.865z"/>
		<path fill="#EEF3FC" d="M567.879,708.268c0,6.627-5.373,12-12,12h-175.49c-6.627,0-12-5.373-12-12V482.855c0-6.627,5.373-12,12-12
			h175.49c6.627,0,12,5.373,12,12V708.268z"/>
		<g>
			<path fill="#EEF3FC" d="M468.624,474.994c-13.623,0-24.668,11.043-24.668,24.666s11.045,24.667,24.668,24.667
				s24.666-11.044,24.666-24.667S482.247,474.994,468.624,474.994z M468.623,514.494c-8.192,0-14.833-6.642-14.833-14.834
				s6.641-14.834,14.833-14.834s14.833,6.642,14.833,14.834S476.815,514.494,468.623,514.494z"/>
			<path fill="#EEF3FC" d="M378.752,662.946c0,5.663,4.591,10.255,10.254,10.255l0,0c5.664,0,10.255-4.592,10.255-10.255v-42.784
				c0-5.662-4.591-10.254-10.255-10.254l0,0c-5.663,0-10.254,4.592-10.254,10.254V662.946z"/>
			<path fill="#EEF3FC" d="M537.007,662.946c0,5.663,4.591,10.255,10.254,10.255l0,0c5.664,0,10.255-4.592,10.255-10.255v-42.784
				c0-5.662-4.591-10.254-10.255-10.254l0,0c-5.663,0-10.254,4.592-10.254,10.254V662.946z"/>
			<path fill="#EEF3FC" d="M545.484,682.897c0,9.673-7.841,17.513-17.512,17.513H409.274c-9.672,0-17.513-7.84-17.513-17.513
				V530.475c0-9.673,7.841-17.513,17.513-17.513h118.698c9.671,0,17.512,7.84,17.512,17.513V682.897z"/>
			<g>
				<path fill="#EEF3FC" d="M545.71,529.116c0,16.511-13.385,29.896-29.896,29.896H421.43c-16.511,0-29.896-13.386-29.896-29.896
					l0,0c0-16.511,13.386-29.896,29.896-29.896h94.385C532.326,499.221,545.71,512.605,545.71,529.116L545.71,529.116z"/>
			</g>
			<path fill="#EEF3FC" d="M506.816,508.219h-94.385c-5.952,0-11.493,1.747-16.152,4.745c-2.999,4.659-4.746,10.2-4.746,16.152
				c0,16.511,13.386,29.896,29.896,29.896h94.385c5.952,0,11.492-1.746,16.151-4.744c2.999-4.66,4.746-10.201,4.746-16.154
				C536.712,521.604,523.327,508.219,506.816,508.219z"/>
			<path fill="#EEF3FC" d="M451.761,575.91c0,3.313-2.687,6-6,6l0,0c-3.313,0-6-2.687-6-6v-28c0-3.313,2.687-6,6-6l0,0
				c3.313,0,6,2.687,6,6V575.91z"/>
			<path fill="#EEF3FC" d="M498.761,575.91c0,3.313-2.687,6-6,6l0,0c-3.313,0-6-2.687-6-6v-28c0-3.313,2.687-6,6-6l0,0
				c3.313,0,6,2.687,6,6V575.91z"/>
			<path fill="#EEF3FC" d="M524.761,673.91c0,6.627-5.372,12-12,12h-87c-6.628,0-12-5.373-12-12v-52.002c0-6.627,5.372-12,12-12h87
				c6.628,0,12,5.373,12,12V673.91z"/>
			<path fill="#EEF3FC" d="M510.261,669.306c0,2.151-1.744,3.896-3.896,3.896h-74.209c-2.151,0-3.896-1.744-3.896-3.896l0,0
				c0-2.151,1.744-3.896,3.896-3.896h74.209C508.517,665.41,510.261,667.154,510.261,669.306L510.261,669.306z"/>
		</g>
		<path fill="#EEF3FC" d="M902.146,403.933H328.312c-5.721,0-10.359,4.638-10.359,10.358v33.351h594.552v-33.351
			C912.505,408.57,907.866,403.933,902.146,403.933z"/>
		<circle fill="#EEF3FC" cx="343.994" cy="424.892" r="10.25"/>
		<circle fill="#EEF3FC" cx="384.994" cy="424.892" r="10.25"/>
		<circle fill="#EEF3FC" cx="425.994" cy="424.892" r="10.25"/>
		<path fill="#EEF3FC" d="M755.743,425.017c0,2.831-2.293,5.125-5.125,5.125H512.386c-2.831,0-5.125-2.294-5.125-5.125l0,0
			c0-2.831,2.294-5.125,5.125-5.125h238.232C753.45,419.892,755.743,422.186,755.743,425.017L755.743,425.017z"/>
		<path fill="#EEF3FC" d="M857.364,535.514c0,3.532-2.863,6.396-6.396,6.396H652.271c-3.532,0-6.396-2.864-6.396-6.396l0,0
			c0-3.533,2.864-6.397,6.396-6.397h198.697C854.501,529.116,857.364,531.98,857.364,535.514L857.364,535.514z"/>
		<path fill="#EEF3FC" d="M857.364,561.91c0,3.532-2.863,6.396-6.396,6.396H652.271c-3.532,0-6.396-2.864-6.396-6.396l0,0
			c0-3.533,2.864-6.397,6.396-6.397h198.697C854.501,555.513,857.364,558.377,857.364,561.91L857.364,561.91z"/>
		<path fill="#EEF3FC" d="M849.743,608.297c0,0.89-0.721,1.611-1.611,1.611H647.486c-0.89,0-1.611-0.722-1.611-1.611l0,0
			c0-0.89,0.722-1.61,1.611-1.61h200.646C849.022,606.687,849.743,607.407,849.743,608.297L849.743,608.297z"/>
		<path fill="#EEF3FC" d="M849.743,629.297c0,0.89-0.721,1.611-1.611,1.611H647.486c-0.89,0-1.611-0.722-1.611-1.611l0,0
			c0-0.89,0.722-1.61,1.611-1.61h200.646C849.022,627.687,849.743,628.407,849.743,629.297L849.743,629.297z"/>
		<path fill="#EEF3FC" d="M798.411,650.297c0,0.89-0.723,1.611-1.611,1.611H647.486c-0.89,0-1.611-0.722-1.611-1.611l0,0
			c0-0.89,0.722-1.61,1.611-1.61H796.8C797.688,648.687,798.411,649.407,798.411,650.297L798.411,650.297z"/>
		<rect x="653.078" y="690.642" fill="#EEF3FC" width="129.333" height="29.626"/>
	</g>
	<g>
		<g>
			<circle fill="#EEF3FC" cx="283.868" cy="631.604" r="64.125"/>
		</g>
		<path fill="#EEF3FC" d="M275.741,575.605c-15.639,0-29.965,5.604-41.094,14.907c-9.301,11.129-14.904,25.453-14.904,41.091
			c0,35.415,28.71,64.125,64.125,64.125c15.639,0,29.965-5.604,41.094-14.907c9.301-11.129,14.904-25.453,14.904-41.091
			C339.866,604.315,311.157,575.605,275.741,575.605z"/>
		<g>
			<polygon fill="#EEF3FC" points="310.311,646.536 260.311,646.536 255.311,608.036 316.311,608.036 			"/>
			<polyline fill="#EEF3FC" points="245.145,600.704 254.311,600.704 255.311,608.036 			"/>
			<polyline fill="#EEF3FC" points="260.311,646.536 260.311,653.204 311.145,653.204 			"/>
			<circle fill="#EEF3FC" cx="271.895" cy="660.455" r="7.25"/>
			<circle fill="#EEF3FC" cx="298.519" cy="660.455" r="7.25"/>
			<line fill="#EEF3FC" x1="274.311" y1="646.536" x2="269.145" y2="608.036"/>
			<line fill="#EEF3FC" x1="294.97" y1="646.536" x2="300.137" y2="608.036"/>
			<line fill="#EEF3FC" x1="256.182" y1="614.741" x2="315.266" y2="614.741"/>
		</g>
	</g>
	<g>
		<g>
			<path fill="#EEF3FC" d="M200.728,316.269c0-17.5-49.5-30-49.5,11.5s49.5,67,49.5,67s49.5-25.5,49.5-67
				S200.728,298.769,200.728,316.269z"/>
		</g>
		<path fill="#EEF3FC" d="M200.922,314.406c-0.123,0.613-0.194,1.234-0.194,1.862c0-0.511-0.046-1.017-0.128-1.518
			c-2.112,2.336-3.372,4.996-3.372,7.783c0-13.816-30.849-24.508-43.838-7.978c-1.374,3.612-2.162,7.982-2.162,13.212
			c0,41.5,49.5,67,49.5,67s25.685-13.233,40.051-36.147c3.63-7.383,5.949-15.61,5.949-24.587
			C246.728,299.473,212.402,302.366,200.922,314.406z"/>
	</g>
	<g>
		<path fill="#EEF3FC" d="M403.216,157.099h386c6.628,0,12,5.373,12,12v85.167c0,6.627-5.372,12-12,12H452.313l-18.098,32.5
			l-12.102-32.5h-18.898c-6.627,0-12-5.373-12-12v-85.167C391.216,162.471,396.589,157.099,403.216,157.099z"/>
		<g>
			
				<ellipse transform="matrix(0.8917 0.4526 -0.4526 0.8917 154.0346 -175.8489)" fill="#EEF3FC" cx="444.519" cy="233.988" rx="10.333" ry="11.5"/>
			
				<ellipse transform="matrix(0.8917 0.4526 -0.4526 0.8917 127.9437 -198.027)" fill="#EEF3FC" cx="477.822" cy="168.372" rx="10.333" ry="11.5"/>
			<g>
				<path fill="#EEF3FC" d="M481.571,251.206c-3.326-4.492-0.74-25.608,9.906-48.24s-14.675-32.4-14.675-32.4
					s-22.831-14.672-34.815,7.281c-11.983,21.954-27.5,36.506-33.09,36.473s14.858,20.438,35.658,19.781
					C456.303,251.277,484.899,255.698,481.571,251.206z"/>
			</g>
			<path fill="#EEF3FC" d="M465.738,170.565c0,0-4.397-2.824-10.345-4.14c-4.843,1.268-9.655,4.551-13.406,11.421
				c-11.983,21.954-27.5,36.506-33.09,36.473s14.858,20.438,35.658,19.781c6.331,9.257,17.549,14.803,26.033,17.252
				c-0.03-0.05-0.043-0.094-0.082-0.146c-3.326-4.492-0.74-25.608,9.906-48.24S465.738,170.565,465.738,170.565z"/>
		</g>
		<path fill="#EEF3FC" d="M548.216,194.266c0,2.209,1.791,4,4,4h180c2.209,0,4-1.791,4-4l0,0c0-2.209-1.791-4-4-4h-180
			C550.007,190.266,548.216,192.057,548.216,194.266L548.216,194.266z"/>
		<path fill="#EEF3FC" d="M548.216,226.76c0,2.209,1.791,4,4,4h180c2.209,0,4-1.791,4-4l0,0c0-2.209-1.791-4-4-4h-180
			C550.007,222.76,548.216,224.551,548.216,226.76L548.216,226.76z"/>
	</g>
	<g>
		<path fill="#EEF3FC" d="M1191.247,344.753H997.758c-6.628,0-12,5.373-12,12v133.492c0,6.627,5.372,12,12,12h12.883l14.049,33.91
			l13.564-33.91h152.993c6.627,0,12-5.373,12-12V356.753C1203.247,350.125,1197.874,344.753,1191.247,344.753z"/>
		<polyline fill="#EEF3FC" points="1013.355,388.253 1033.022,407.919 1070.688,368.253 		"/>
		<rect x="1089.355" y="446.73" fill="#EEF3FC" width="84.666" height="8.667"/>
		<rect x="1089.355" y="463.458" fill="#EEF3FC" width="84.666" height="3.733"/>
		<rect x="1089.355" y="472.308" fill="#EEF3FC" width="84.666" height="3.734"/>
		<rect x="1013.355" y="427.585" fill="#EEF3FC" width="48" height="50.667"/>
		<path fill="#EEF3FC" d="M1174.021,398.305c0,4.407-3.572,7.979-7.979,7.979h-63.561c-4.406,0-7.979-3.573-7.979-7.979l0,0
			c0-4.407,3.572-7.979,7.979-7.979h63.561C1170.449,390.325,1174.021,393.898,1174.021,398.305L1174.021,398.305z"/>
	</g>
	<g>
		<path fill="#E8FEEA" stroke="#060535" stroke-width="5" stroke-miterlimit="10" d="M987.036,725.833c0,6.627-5.373,12-12,12h-630
			c-6.627,0-12-5.373-12-12v-376c0-6.627,5.373-12,12-12h630c6.627,0,12,5.373,12,12V725.833z"/>
		<g>
			<path fill="#AAC7D6" d="M322.037,786.333c-7.996,0-14.5-6.505-14.5-14.5v-34c0-7.995,6.504-14.5,14.5-14.5h676
				c7.995,0,14.5,6.505,14.5,14.5v34c0,7.995-6.505,14.5-14.5,14.5H322.037z"/>
			<path fill="#060535" d="M998.036,725.833c6.627,0,12,5.373,12,12v34c0,6.627-5.373,12-12,12h-676c-6.627,0-12-5.373-12-12v-34
				c0-6.627,5.373-12,12-12H998.036 M998.036,720.833h-676c-9.374,0-17,7.626-17,17v34c0,9.374,7.626,17,17,17h676
				c9.374,0,17-7.626,17-17v-34C1015.036,728.459,1007.41,720.833,998.036,720.833L998.036,720.833z"/>
		</g>
		<path fill="#C9E3FB" d="M998.036,725.833h-676c-6.627,0-12,5.373-12,12v5c0,6.627,5.373,12,12,12h676c6.627,0,12-5.373,12-12v-5
			C1010.036,731.206,1004.663,725.833,998.036,725.833z"/>
		<path fill="#FFFFFF" stroke="#060535" stroke-width="5" stroke-miterlimit="10" d="M957.313,694.057
			c0,5.721-4.638,10.358-10.358,10.358H373.12c-5.721,0-10.359-4.638-10.359-10.358V369.482c0-5.721,4.638-10.358,10.359-10.358
			h573.834c5.721,0,10.358,4.638,10.358,10.358V694.057z"/>
		<path fill="#C7E1F9" stroke="#060535" stroke-width="5" stroke-miterlimit="10" d="M612.688,663.459c0,6.627-5.373,12-12,12
			h-175.49c-6.627,0-12-5.373-12-12V438.047c0-6.627,5.373-12,12-12h175.49c6.627,0,12,5.373,12,12V663.459z"/>
		<g>
			<path fill="#FFC527" stroke="#060535" stroke-width="5" stroke-miterlimit="10" d="M513.432,430.186
				c-13.623,0-24.668,11.043-24.668,24.666s11.045,24.667,24.668,24.667s24.666-11.044,24.666-24.667
				S527.055,430.186,513.432,430.186z M513.431,469.686c-8.192,0-14.833-6.642-14.833-14.834s6.641-14.834,14.833-14.834
				s14.833,6.642,14.833,14.834S521.623,469.686,513.431,469.686z"/>
			<path fill="#F995C2" stroke="#060535" stroke-width="5" stroke-miterlimit="10" d="M423.561,618.138
				c0,5.663,4.591,10.255,10.254,10.255l0,0c5.664,0,10.255-4.592,10.255-10.255v-42.784c0-5.662-4.591-10.254-10.255-10.254l0,0
				c-5.663,0-10.254,4.592-10.254,10.254V618.138z"/>
			<path fill="#F995C2" stroke="#060535" stroke-width="5" stroke-miterlimit="10" d="M581.815,618.138
				c0,5.663,4.591,10.255,10.254,10.255l0,0c5.664,0,10.255-4.592,10.255-10.255v-42.784c0-5.662-4.591-10.254-10.255-10.254l0,0
				c-5.663,0-10.254,4.592-10.254,10.254V618.138z"/>
			<path fill="#FFC527" stroke="#060535" stroke-width="5" stroke-miterlimit="10" d="M590.292,638.089
				c0,9.673-7.841,17.513-17.512,17.513H454.082c-9.672,0-17.513-7.84-17.513-17.513V485.666c0-9.673,7.841-17.513,17.513-17.513
				H572.78c9.671,0,17.512,7.84,17.512,17.513V638.089z"/>
			<g>
				<path fill="#FCA9D2" d="M466.238,516.704c-17.863,0-32.396-14.533-32.396-32.396s14.533-32.396,32.396-32.396h94.385
					c17.863,0,32.396,14.532,32.396,32.396s-14.533,32.396-32.396,32.396H466.238z"/>
				<path fill="#060535" d="M560.623,454.412c16.511,0,29.896,13.385,29.896,29.896s-13.385,29.896-29.896,29.896h-94.385
					c-16.511,0-29.896-13.386-29.896-29.896s13.386-29.896,29.896-29.896H560.623 M560.623,449.412h-94.385
					c-19.242,0-34.896,15.654-34.896,34.896c0,19.242,15.654,34.896,34.896,34.896h94.385c19.241,0,34.896-15.654,34.896-34.896
					C595.519,465.066,579.864,449.412,560.623,449.412L560.623,449.412z"/>
			</g>
			<path fill="#F995C2" d="M551.625,463.41H457.24c-5.952,0-11.493,1.747-16.152,4.745c-2.999,4.659-4.746,10.2-4.746,16.152
				c0,16.511,13.386,29.896,29.896,29.896h94.385c5.952,0,11.492-1.746,16.151-4.744c2.999-4.66,4.746-10.201,4.746-16.154
				C581.52,476.795,568.135,463.41,551.625,463.41z"/>
			<path fill="#04A6F6" stroke="#060535" stroke-width="5" stroke-miterlimit="10" d="M496.569,531.102c0,3.313-2.687,6-6,6l0,0
				c-3.313,0-6-2.687-6-6v-28c0-3.313,2.687-6,6-6l0,0c3.313,0,6,2.687,6,6V531.102z"/>
			<path fill="#04A6F6" stroke="#060535" stroke-width="5" stroke-miterlimit="10" d="M543.569,531.102c0,3.313-2.687,6-6,6l0,0
				c-3.313,0-6-2.687-6-6v-28c0-3.313,2.687-6,6-6l0,0c3.313,0,6,2.687,6,6V531.102z"/>
			<path fill="#F995C2" stroke="#060535" stroke-width="5" stroke-miterlimit="10" d="M569.569,629.102c0,6.627-5.372,12-12,12h-87
				c-6.628,0-12-5.373-12-12V577.1c0-6.627,5.372-12,12-12h87c6.628,0,12,5.373,12,12V629.102z"/>
			<path fill="#04A6F6" stroke="#060535" stroke-width="5" stroke-miterlimit="10" d="M555.069,624.497
				c0,2.151-1.744,3.896-3.896,3.896h-74.209c-2.151,0-3.896-1.744-3.896-3.896l0,0c0-2.151,1.744-3.896,3.896-3.896h74.209
				C553.325,620.602,555.069,622.346,555.069,624.497L555.069,624.497z"/>
		</g>
		<path fill="#C2D7E0" stroke="#060535" stroke-width="5" stroke-miterlimit="10" d="M946.954,359.124H373.12
			c-5.721,0-10.359,4.638-10.359,10.358v33.351h594.552v-33.351C957.313,363.762,952.675,359.124,946.954,359.124z"/>
		<circle fill="#FFFFFF" stroke="#060535" stroke-width="5" stroke-miterlimit="10" cx="388.802" cy="380.083" r="10.25"/>
		<circle fill="#FFFFFF" stroke="#060535" stroke-width="5" stroke-miterlimit="10" cx="429.802" cy="380.083" r="10.25"/>
		<circle fill="#FFFFFF" stroke="#060535" stroke-width="5" stroke-miterlimit="10" cx="470.802" cy="380.083" r="10.25"/>
		<path fill="#060535" stroke="#060535" stroke-width="5" stroke-miterlimit="10" d="M800.552,380.208
			c0,2.831-2.294,5.125-5.125,5.125H557.194c-2.831,0-5.125-2.294-5.125-5.125l0,0c0-2.831,2.294-5.125,5.125-5.125h238.232
			C798.258,375.083,800.552,377.377,800.552,380.208L800.552,380.208z"/>
		<path fill="#C5E0EF" d="M902.173,490.705c0,3.532-2.863,6.396-6.396,6.396H697.079c-3.532,0-6.396-2.864-6.396-6.396l0,0
			c0-3.533,2.864-6.397,6.396-6.397h198.697C899.31,484.308,902.173,487.172,902.173,490.705L902.173,490.705z"/>
		<path fill="#C5E0EF" d="M902.173,517.102c0,3.532-2.863,6.396-6.396,6.396H697.079c-3.532,0-6.396-2.864-6.396-6.396l0,0
			c0-3.533,2.864-6.397,6.396-6.397h198.697C899.31,510.704,902.173,513.568,902.173,517.102L902.173,517.102z"/>
		<path fill="#E2F4FE" d="M894.552,564.891c0,1.232-0.721,2.231-1.611,2.231H692.294c-0.89,0-1.611-0.999-1.611-2.231l0,0
			c0-1.232,0.722-2.23,1.611-2.23H892.94C893.831,562.66,894.552,563.658,894.552,564.891L894.552,564.891z"/>
		<path fill="#E2F4FE" d="M894.552,583.539c0,1.232-0.721,2.231-1.611,2.231H692.294c-0.89,0-1.611-0.999-1.611-2.231l0,0
			c0-1.232,0.722-2.23,1.611-2.23H892.94C893.831,581.309,894.552,582.307,894.552,583.539L894.552,583.539z"/>
		<path fill="#E2F4FE" d="M843.219,602.636c0,1.232-0.722,2.232-1.611,2.232H692.294c-0.89,0-1.611-1-1.611-2.232l0,0
			c0-1.231,0.722-2.23,1.611-2.23h149.313C842.497,600.405,843.219,601.404,843.219,602.636L843.219,602.636z"/>
		<rect x="697.886" y="645.833" fill="#04A6F6" width="129.333" height="29.626"/>
	</g>
	<g>
		<path fill="#060535" d="M234.188,252.679c0,1.248-1.012,2.259-2.259,2.259l0,0c-1.248,0-2.259-1.012-2.259-2.259V222.41
			c0-1.248,1.011-2.259,2.259-2.259l0,0c1.248,0,2.259,1.012,2.259,2.259V252.679z"/>
		<path fill="#060535" d="M273.411,209.42c1.248,0,2.259-1.012,2.259-2.259l0,0c0-1.248-1.012-2.259-2.259-2.259h-30.269
			c-1.248,0-2.259,1.011-2.259,2.259l0,0c0,1.248,1.012,2.259,2.259,2.259H273.411z"/>
		<path fill="#060535" d="M324.411,209.42c1.248,0,2.259-1.012,2.259-2.259l0,0c0-1.248-1.012-2.259-2.259-2.259h-30.269
			c-1.248,0-2.259,1.011-2.259,2.259l0,0c0,1.248,1.012,2.259,2.259,2.259H324.411z"/>
		<path fill="#060535" d="M375.411,209.42c1.248,0,2.259-1.012,2.259-2.259l0,0c0-1.248-1.012-2.259-2.259-2.259h-30.269
			c-1.248,0-2.259,1.011-2.259,2.259l0,0c0,1.248,1.012,2.259,2.259,2.259H375.411z"/>
		<path fill="#060535" d="M662.296,277.79c0,1.248-1.012,2.259-2.26,2.259l0,0c-1.248,0-2.259-1.012-2.259-2.259v-30.269
			c0-1.248,1.011-2.259,2.259-2.259l0,0c1.248,0,2.26,1.012,2.26,2.259V277.79z"/>
		<path fill="#060535" d="M662.296,325.123c0,1.248-1.012,2.259-2.26,2.259l0,0c-1.248,0-2.259-1.012-2.259-2.259v-30.269
			c0-1.248,1.011-2.259,2.259-2.259l0,0c1.248,0,2.26,1.012,2.26,2.259V325.123z"/>
		<path fill="#060535" d="M234.188,417.967c0,1.248-1.012,2.259-2.259,2.259l0,0c-1.248,0-2.259-1.012-2.259-2.259v-30.269
			c0-1.248,1.011-2.259,2.259-2.259l0,0c1.248,0,2.259,1.012,2.259,2.259V417.967z"/>
		<path fill="#060535" d="M234.188,468.968c0,1.247-1.012,2.259-2.259,2.259l0,0c-1.248,0-2.259-1.012-2.259-2.259v-30.27
			c0-1.248,1.011-2.259,2.259-2.259l0,0c1.248,0,2.259,1.012,2.259,2.259V468.968z"/>
		<path fill="#060535" d="M234.188,519.968c0,1.247-1.012,2.259-2.259,2.259l0,0c-1.248,0-2.259-1.012-2.259-2.259v-30.27
			c0-1.248,1.011-2.26,2.259-2.26l0,0c1.248,0,2.259,1.012,2.259,2.26V519.968z"/>
		<path fill="#060535" d="M234.188,520.968c0,1.247-1.012,2.259-2.259,2.259l0,0c-1.248,0-2.259-1.012-2.259-2.259v-30.27
			c0-1.248,1.011-2.26,2.259-2.26l0,0c1.248,0,2.259,1.012,2.259,2.26V520.968z"/>
		<path fill="#060535" d="M234.188,571.968c0,1.247-1.012,2.259-2.259,2.259l0,0c-1.248,0-2.259-1.012-2.259-2.259v-30.27
			c0-1.248,1.011-2.26,2.259-2.26l0,0c1.248,0,2.259,1.012,2.259,2.26V571.968z"/>
		<path fill="#060535" d="M234.188,622.968c0,1.247-1.012,2.259-2.259,2.259l0,0c-1.248,0-2.259-1.012-2.259-2.259v-30.27
			c0-1.248,1.011-2.26,2.259-2.26l0,0c1.248,0,2.259,1.012,2.259,2.26V622.968z"/>
	</g>
	<g>
		<path fill="#EEF3FC" d="M221.843,265.024c0,1.248-1.012,2.259-2.259,2.259l0,0c-1.248,0-2.259-1.012-2.259-2.259v-30.269
			c0-1.248,1.011-2.259,2.259-2.259l0,0c1.248,0,2.259,1.012,2.259,2.259V265.024z"/>
		<path fill="#EEF3FC" d="M261.065,221.765c1.248,0,2.259-1.012,2.259-2.259l0,0c0-1.248-1.012-2.259-2.259-2.259h-30.269
			c-1.248,0-2.259,1.011-2.259,2.259l0,0c0,1.248,1.012,2.259,2.259,2.259H261.065z"/>
		<path fill="#EEF3FC" d="M312.065,221.765c1.248,0,2.259-1.012,2.259-2.259l0,0c0-1.248-1.012-2.259-2.259-2.259h-30.269
			c-1.248,0-2.259,1.011-2.259,2.259l0,0c0,1.248,1.012,2.259,2.259,2.259H312.065z"/>
		<path fill="#EEF3FC" d="M363.065,221.765c1.248,0,2.259-1.012,2.259-2.259l0,0c0-1.248-1.012-2.259-2.259-2.259h-30.269
			c-1.248,0-2.259,1.011-2.259,2.259l0,0c0,1.248,1.012,2.259,2.259,2.259H363.065z"/>
		<path fill="#EEF3FC" d="M649.951,290.135c0,1.248-1.012,2.259-2.26,2.259l0,0c-1.248,0-2.259-1.012-2.259-2.259v-30.269
			c0-1.248,1.011-2.259,2.259-2.259l0,0c1.248,0,2.26,1.012,2.26,2.259V290.135z"/>
		<path fill="#EEF3FC" d="M649.951,337.468c0,1.248-1.012,2.259-2.26,2.259l0,0c-1.248,0-2.259-1.012-2.259-2.259v-30.269
			c0-1.248,1.011-2.259,2.259-2.259l0,0c1.248,0,2.26,1.012,2.26,2.259V337.468z"/>
		<path fill="#EEF3FC" d="M221.843,430.313c0,1.248-1.012,2.259-2.259,2.259l0,0c-1.248,0-2.259-1.012-2.259-2.259v-30.269
			c0-1.248,1.011-2.259,2.259-2.259l0,0c1.248,0,2.259,1.012,2.259,2.259V430.313z"/>
		<path fill="#EEF3FC" d="M221.843,481.313c0,1.246-1.012,2.258-2.259,2.258l0,0c-1.248,0-2.259-1.012-2.259-2.258v-30.27
			c0-1.248,1.011-2.259,2.259-2.259l0,0c1.248,0,2.259,1.012,2.259,2.259V481.313z"/>
		<path fill="#EEF3FC" d="M221.843,532.313c0,1.246-1.012,2.258-2.259,2.258l0,0c-1.248,0-2.259-1.012-2.259-2.258v-30.27
			c0-1.248,1.011-2.26,2.259-2.26l0,0c1.248,0,2.259,1.012,2.259,2.26V532.313z"/>
		<path fill="#EEF3FC" d="M221.843,533.313c0,1.246-1.012,2.258-2.259,2.258l0,0c-1.248,0-2.259-1.012-2.259-2.258v-30.27
			c0-1.248,1.011-2.26,2.259-2.26l0,0c1.248,0,2.259,1.012,2.259,2.26V533.313z"/>
		<path fill="#EEF3FC" d="M221.843,584.313c0,1.246-1.012,2.258-2.259,2.258l0,0c-1.248,0-2.259-1.012-2.259-2.258v-30.27
			c0-1.248,1.011-2.26,2.259-2.26l0,0c1.248,0,2.259,1.012,2.259,2.26V584.313z"/>
		<path fill="#EEF3FC" d="M221.843,635.313c0,1.246-1.012,2.258-2.259,2.258l0,0c-1.248,0-2.259-1.012-2.259-2.258v-30.27
			c0-1.248,1.011-2.26,2.259-2.26l0,0c1.248,0,2.259,1.012,2.259,2.26V635.313z"/>
	</g>
	<g>
		<g>
			<path fill="#F7CD6F" d="M315.069,667.027c-36.737,0-66.625-29.888-66.625-66.625s29.888-66.625,66.625-66.625
				s66.625,29.888,66.625,66.625S351.806,667.027,315.069,667.027z"/>
			<path fill="#060535" d="M315.069,536.277c35.416,0,64.125,28.71,64.125,64.125s-28.709,64.125-64.125,64.125
				c-35.415,0-64.125-28.71-64.125-64.125S279.654,536.277,315.069,536.277 M315.069,531.277c-38.116,0-69.125,31.01-69.125,69.125
				s31.009,69.125,69.125,69.125s69.125-31.01,69.125-69.125S353.185,531.277,315.069,531.277L315.069,531.277z"/>
		</g>
		<path fill="#FFC527" d="M306.942,544.404c-15.639,0-29.965,5.604-41.094,14.907c-9.301,11.129-14.904,25.453-14.904,41.091
			c0,35.415,28.71,64.125,64.125,64.125c15.639,0,29.965-5.604,41.094-14.907c9.301-11.129,14.904-25.453,14.904-41.091
			C371.067,573.114,342.358,544.404,306.942,544.404z"/>
		<g>
			<polygon fill="none" stroke="#FFFFFF" stroke-width="6" stroke-miterlimit="10" points="341.512,615.335 291.512,615.335 
				286.512,576.835 347.512,576.835 			"/>
			<polyline fill="none" stroke="#FFFFFF" stroke-width="6" stroke-miterlimit="10" points="276.346,569.503 285.512,569.503 
				286.512,576.835 			"/>
			<polyline fill="none" stroke="#FFFFFF" stroke-width="6" stroke-miterlimit="10" points="291.512,615.335 291.512,622.003 
				342.346,622.003 			"/>
			<circle fill="none" stroke="#FFFFFF" stroke-width="6" stroke-miterlimit="10" cx="303.096" cy="629.254" r="7.25"/>
			<circle fill="none" stroke="#FFFFFF" stroke-width="6" stroke-miterlimit="10" cx="329.72" cy="629.254" r="7.25"/>
			
				<line fill="none" stroke="#FFFFFF" stroke-width="6" stroke-miterlimit="10" x1="305.512" y1="615.335" x2="300.346" y2="576.835"/>
			
				<line fill="none" stroke="#FFFFFF" stroke-width="6" stroke-miterlimit="10" x1="326.171" y1="615.335" x2="331.338" y2="576.835"/>
			
				<line fill="none" stroke="#FFFFFF" stroke-width="6" stroke-miterlimit="10" x1="287.383" y1="583.54" x2="346.467" y2="583.54"/>
		</g>
	</g>
	<g>
		<g>
			<path fill="#FCA9D2" d="M230.784,365.79c-2.076-1.07-50.855-26.688-50.855-69.223c0-22.396,13.915-30.376,26.937-30.376
				c9.743,0,20.349,4.526,25.063,11.336c4.714-6.81,15.321-11.336,25.063-11.336c13.022,0,26.937,7.98,26.937,30.376
				c0,42.535-48.779,68.153-50.855,69.223l-1.145,0.589L230.784,365.79z"/>
			<path fill="#060535" d="M256.993,268.691c12.269,0,24.437,7.304,24.437,27.876c0,41.5-49.5,67-49.5,67s-49.5-25.5-49.5-67
				c0-20.575,12.167-27.877,24.437-27.876c12.479,0,25.063,7.553,25.063,16.376C231.929,276.243,244.513,268.691,256.993,268.691
				 M256.993,263.691c-9.282,0-19.256,3.74-25.063,9.842c-5.808-6.102-15.781-9.842-25.063-9.842
				c-8.084,0-15.099,2.634-20.284,7.617c-6.073,5.837-9.152,14.335-9.152,25.259c0,18.389,9.107,36.618,26.336,52.716
				c12.735,11.899,25.343,18.456,25.874,18.729l2.29,1.18l2.29-1.18c0.53-0.273,13.138-6.83,25.874-18.729
				c17.229-16.098,26.336-34.327,26.336-52.716C286.429,272.328,271.223,263.691,256.993,263.691L256.993,263.691z"/>
		</g>
		<path fill="#F995C2" d="M232.123,283.205c-0.123,0.613-0.194,1.234-0.194,1.862c0-0.511-0.046-1.017-0.128-1.518
			c-2.112,2.336-3.372,4.996-3.372,7.783c0-13.816-30.849-24.508-43.838-7.978c-1.374,3.612-2.162,7.982-2.162,13.212
			c0,41.5,49.5,67,49.5,67s25.685-13.233,40.051-36.147c3.63-7.383,5.949-15.61,5.949-24.587
			C277.929,268.272,243.604,271.165,232.123,283.205z"/>
	</g>
	<g>
		<path fill="#E2F4FE" stroke="#060535" stroke-width="5" stroke-linecap="round" stroke-miterlimit="10" d="M434.417,125.897h386
			c6.628,0,12,5.373,12,12v85.167c0,6.627-5.372,12-12,12H483.515l-18.098,32.5l-12.102-32.5h-18.898c-6.627,0-12-5.373-12-12
			v-85.167C422.417,131.27,427.79,125.897,434.417,125.897z"/>
		<g>
			
				<ellipse transform="matrix(0.8917 0.4526 -0.4526 0.8917 143.2917 -193.3489)" fill="#FFFFFF" stroke="#060535" stroke-width="5" stroke-linecap="round" stroke-miterlimit="10" cx="475.72" cy="202.787" rx="10.333" ry="11.5"/>
			
				<ellipse transform="matrix(0.8917 0.4526 -0.4526 0.8917 117.2008 -215.5269)" fill="#A1953F" stroke="#060535" stroke-width="5" stroke-linecap="round" stroke-miterlimit="10" cx="509.023" cy="137.171" rx="10.333" ry="11.5"/>
			<g>
				<path fill="#F7CD6F" d="M510.336,224.146c-7.585,0-26.137-5.671-35.856-18.733c-18.639-0.165-37.817-16.047-37.817-21.572
					c0-0.997,0.41-1.876,1.153-2.479c0.61-0.494,1.374-0.745,2.268-0.745c3.525,0,18.243-11.966,30.909-35.17
					c6.039-11.063,14.699-13.385,20.901-13.385c8.533,0,15.878,4.229,17.244,5.063c1.819,0.748,12.976,5.695,17.123,16.034
					c2.422,6.04,1.978,12.657-1.32,19.669c-11.275,23.969-12.232,42.89-10.159,45.688c1.185,1.6,0.695,2.999,0.43,3.526
					C514.152,224.146,511.28,224.146,510.336,224.146L510.336,224.146z"/>
				<path fill="#060535" d="M491.895,134.563c8.638,0,16.109,4.801,16.109,4.801s25.321,9.768,14.675,32.4
					s-13.232,43.748-9.906,48.24c0.797,1.077-0.238,1.641-2.436,1.641c-6.973,0-25.647-5.686-34.58-18.747
					c-0.33,0.01-0.656,0.016-0.986,0.016c-20.436,0-40.142-19.797-34.686-19.796c0.004,0,0.009,0,0.014,0c0.006,0,0.013,0,0.02,0
					c5.606,0,21.101-14.544,33.07-36.473C478.317,137.25,485.432,134.563,491.895,134.563 M491.895,129.563L491.895,129.563
					c-6.878,0-16.469,2.547-23.095,14.687c-11.99,21.964-25.558,33.212-28.802,33.869c-2.184,0.037-4.063,1.095-5.074,2.845
					c-0.797,1.38-1.376,3.667,0.392,6.729c3.848,6.667,20.488,19.461,37.914,20.188c10.438,13.07,29.285,18.764,37.108,18.764
					c3.554,0,5.945-1.17,7.107-3.478c0.969-1.923,0.751-4.17-0.578-6.035c-1.383-3.014-0.312-20.603,10.337-43.24
					c3.606-7.666,4.07-14.955,1.378-21.664c-4.38-10.919-15.812-16.278-18.31-17.338
					C508.383,133.765,500.736,129.563,491.895,129.563L491.895,129.563z"/>
			</g>
			<path fill="#FFC527" d="M496.939,139.364c0,0-4.397-2.824-10.345-4.14c-4.843,1.268-9.655,4.551-13.406,11.421
				c-11.983,21.954-27.5,36.506-33.09,36.473s14.858,20.438,35.658,19.781c6.331,9.257,17.549,14.803,26.033,17.252
				c-0.03-0.05-0.043-0.094-0.082-0.146c-3.326-4.492-0.74-25.608,9.906-48.24S496.939,139.364,496.939,139.364z"/>
		</g>
		<path fill="#C6E1F0" d="M579.417,163.064c0,2.209,1.791,4,4,4h180c2.209,0,4-1.791,4-4l0,0c0-2.209-1.791-4-4-4h-180
			C581.208,159.064,579.417,160.855,579.417,163.064L579.417,163.064z"/>
		<path fill="#C6E1F0" d="M579.417,195.559c0,2.209,1.791,4,4,4h180c2.209,0,4-1.791,4-4l0,0c0-2.209-1.791-4-4-4h-180
			C581.208,191.559,579.417,193.35,579.417,195.559L579.417,195.559z"/>
	</g>
	<g>
		<path fill="#DCFBFB" stroke="#060535" stroke-width="5" stroke-linecap="round" stroke-miterlimit="10" d="M1222.448,313.552
			h-193.489c-6.628,0-12,5.373-12,12v133.492c0,6.627,5.372,12,12,12h12.883l14.049,33.91l13.564-33.91h152.993
			c6.627,0,12-5.373,12-12V325.552C1234.448,318.924,1229.075,313.552,1222.448,313.552z"/>
		<polyline fill="none" stroke="#00A0FF" stroke-width="5" stroke-linecap="round" stroke-miterlimit="10" points="
			1044.557,357.052 1064.224,376.718 1101.89,337.052 		"/>
		<rect x="1120.557" y="415.529" fill="#C5E0EF" width="84.666" height="8.667"/>
		<rect x="1120.557" y="432.256" fill="#C5E0EF" width="84.666" height="3.734"/>
		<rect x="1120.557" y="441.107" fill="#C5E0EF" width="84.666" height="3.734"/>
		<rect x="1044.557" y="396.384" fill="#FBFFF4" width="48" height="50.667"/>
		<path fill="#C5E0EF" d="M1205.223,367.104c0,4.407-3.572,7.979-7.979,7.979h-63.561c-4.406,0-7.979-3.573-7.979-7.979l0,0
			c0-4.407,3.572-7.979,7.979-7.979h63.561C1201.65,359.124,1205.223,362.697,1205.223,367.104L1205.223,367.104z"/>
	</g>
	<g>
		<path fill="#5370AB" stroke="#060535" stroke-width="5" stroke-linecap="round" stroke-miterlimit="10" d="M1154.408,822.962
			c0,6.627-5.373,12-12,12h-146c-6.627,0-12-5.373-12-12v-281c0-6.627,5.373-12,12-12h146c6.627,0,12,5.373,12,12V822.962z"/>
		<path fill="#F7FDFD" stroke="#060535" stroke-width="5" stroke-linecap="round" stroke-miterlimit="10" d="M1142.408,529.962h-146
			c-6.627,0-12,5.373-12,12v236h170v-236C1154.408,535.335,1149.035,529.962,1142.408,529.962z"/>
		<path fill="#54627E" stroke="#060535" stroke-width="5" stroke-linecap="round" stroke-miterlimit="10" d="M984.408,807.296
			v15.666c0,6.627,5.373,12,12,12h146c6.627,0,12-5.373,12-12v-15.666H984.408z"/>
		
			<ellipse fill="#FFFFFF" stroke="#060535" stroke-width="5" stroke-linecap="round" stroke-miterlimit="10" cx="1069.408" cy="807.296" rx="16" ry="16.667"/>
		<rect x="998.398" y="746.629" fill="#04A6F6" width="140.5" height="16.5"/>
		<path fill="#5370AB" stroke="#060535" stroke-width="5" stroke-linecap="round" stroke-miterlimit="10" d="M1142.408,529.962h-146
			c-6.627,0-12,5.373-12,12v23h170v-23C1154.408,535.335,1149.035,529.962,1142.408,529.962z"/>
		
			<circle fill="#FFFFFF" stroke="#060535" stroke-width="5" stroke-linecap="round" stroke-miterlimit="10" cx="1009.148" cy="550.212" r="5.75"/>
		<path fill="#DCFBFB" stroke="#060535" stroke-width="5" stroke-linecap="round" stroke-miterlimit="10" d="M1132.898,719.962
			c0,6.627-5.373,12-12,12h-105.5c-6.627,0-12-5.373-12-12v-122c0-6.627,5.373-12,12-12h105.5c6.627,0,12,5.373,12,12V719.962z"/>
		<path fill="#04A6F6" stroke="#060535" stroke-width="5" stroke-linecap="round" stroke-miterlimit="10" d="M1096.961,600.402
			c-25.938-17.208-56.25,0-56.25,0l23.825,30.431L1096.961,600.402z"/>
		<polygon fill="#FF7DB5" stroke="#060535" stroke-width="5" stroke-linecap="round" stroke-miterlimit="10" points="
			1035.252,637.295 1035.252,704.629 1104.585,704.629 1104.585,637.295 1123.586,657.921 1143.252,638.255 1098.169,591.546 
			1068.836,620.879 1040.711,592.754 994.044,639.421 1013.252,658.629 		"/>
		<path fill="#FFFFFF" stroke="#060535" stroke-width="5" stroke-linecap="round" stroke-miterlimit="10" d="M1093.027,632.333
			c0,0.828-0.672,1.5-1.5,1.5h-12.5c-0.828,0-1.5-0.672-1.5-1.5l0,0c0-0.828,0.672-1.5,1.5-1.5h12.5
			C1092.355,630.833,1093.027,631.505,1093.027,632.333L1093.027,632.333z"/>
	</g>
</g>
</svg>
